<mxfile host="app.diagrams.net" modified="2024-05-09T06:45:10.684Z" agent="Mozilla/5.0 (Windows NT 10.0; Win64; x64) AppleWebKit/537.36 (KHTML, like Gecko) Chrome/122.0.0.0 Whale/3.25.232.19 Safari/537.36" version="24.3.1" etag="fyyW06-rpiXXJgopmZmF" type="github">
  <diagram name="페이지-1" id="QXS3KxJIMMQvcSw1qxPA">
    <mxGraphModel>
      <root>
        <mxCell id="0" />
        <mxCell id="1" parent="0" />
      </root>
    </mxGraphModel>
  </diagram>
</mxfile>
